# xmcd CD database file
#
# Track frame offsets:
#	150
#	41990
#	71690
#	101757
#	120970
#	144655
#	178367
#
# Disc length: 2667 seconds
#
# Revision: 2
# Processed by: cddbd v1.5.1PL0 Copyright (c) Steve Scherf et al.
# Submitted via: CDex 1.51
#
DISCID=690a6907
DTITLE=Howlin' Wolf, Muddy Waters, Bo Diddley - The Super Super Blues Band
DYEAR=1900
DGENRE=Blues
TTITLE0=Long Distance Call
TTITLE1=Ooh Baby/Wrecking My Love Life
TTITLE2=Sweet Little Angel
TTITLE3=Spoonful
TTITLE4=Diddley Daddy
TTITLE5=The Red Rooster
TTITLE6=Goin' Down Slow
EXTD=1992 Chess Records, Originally Checker LP 3010
EXTT0=
EXTT1=
EXTT2=
EXTT3=
EXTT4=
EXTT5=
EXTT6=
PLAYORDER=
